RBDS001runT25_grf
version=1
nRows=27
nColumns=19
inDegrees=no
endheader
time	ground_force_r_vx	ground_force_r_vy	ground_force_r_vz	ground_force_r_px	ground_force_r_py	ground_force_r_pz	ground_torque_r_x	ground_torque_r_y	ground_torque_r_z	ground_force_l_vx	ground_force_l_vy	ground_force_l_vz	ground_force_l_px	ground_force_l_py	ground_force_l_pz	ground_torque_l_x	ground_torque_l_y	ground_torque_l_z
      0.00000000	   -184.40334248	    320.77107538	    -68.26697697	      2.57563264	      0.00000000	      1.16076170	      9.07771043	    -16.71930688	      3.49605193	      0.00000000	      0.00000000	      0.00000000	      0.00000000	      0.00000000	      0.00000000	      0.00000000	      0.00000000	      0.00000000
      0.00333333	   -171.58796966	    384.75464920	    -61.12688265	      2.51024246	      0.00000000	      1.11885324	      7.67643116	    -13.35685535	      3.03432954	      0.00000000	      0.00000000	      0.00000000	      0.00000000	      0.00000000	      0.00000000	      0.00000000	      0.00000000	      0.00000000
      0.00666667	   -159.35373356	    448.75847674	    -53.94447345	      2.53234935	      0.00000000	      1.15591363	      6.32863162	    -10.18826318	      2.58974518	      0.00000000	      0.00000000	      0.00000000	      0.00000000	      0.00000000	      0.00000000	      0.00000000	      0.00000000	      0.00000000
      0.01000000	   -148.18641305	    512.21105338	    -46.85739162	      2.48981741	      0.00000000	      1.12580411	      5.06294564	     -7.24839502	      2.17264187	      0.00000000	      0.00000000	      0.00000000	      0.00000000	      0.00000000	      0.00000000	      0.00000000	      0.00000000	      0.00000000
      0.01333333	   -138.47368752	    574.47370153	    -39.98060215	      2.49737447	      0.00000000	      1.12672778	      3.90178399	     -4.57372956	      1.79109265	      0.00000000	      0.00000000	      0.00000000	      0.00000000	      0.00000000	      0.00000000	      0.00000000	      0.00000000	      0.00000000
      0.01666667	   -130.43895039	    634.85818386	    -33.39211430	      2.45836513	      0.00000000	      1.12204800	      2.86064170	     -2.19216018	      1.45030455	      0.00000000	      0.00000000	      0.00000000	      0.00000000	      0.00000000	      0.00000000	      0.00000000	      0.00000000	      0.00000000
      0.02000000	   -124.12356081	    692.67979193	    -27.13592321	      2.44064192	      0.00000000	      1.12197963	      1.94706313	     -0.11121091	      1.15194859	      0.00000000	      0.00000000	      0.00000000	      0.00000000	      0.00000000	      0.00000000	      0.00000000	      0.00000000	      0.00000000
      0.02333333	   -119.41775675	    747.33519310	    -21.24160687	      2.45510543	      0.00000000	      1.12199325	      1.16145513	      1.68152915	      0.89475132	      0.00000000	      0.00000000	      0.00000000	      0.00000000	      0.00000000	      0.00000000	      0.00000000	      0.00000000	      0.00000000
      0.02666667	   -116.11709695	    798.37600390	    -15.75739207	      2.40039725	      0.00000000	      1.11667995	      0.49982128	      3.20398868	      0.67621309	      0.00000000	      0.00000000	      0.00000000	      0.00000000	      0.00000000	      0.00000000	      0.00000000	      0.00000000	      0.00000000
      0.03000000	   -113.97921340	    845.55649979	    -10.77850195	      2.43462790	      0.00000000	      1.11126084	     -0.04353478	      4.46484253	      0.49391602	      0.00000000	      0.00000000	      0.00000000	      0.00000000	      0.00000000	      0.00000000	      0.00000000	      0.00000000	      0.00000000
      0.03333333	   -112.76053306	    888.84424389	     -6.44329387	      2.40866623	      0.00000000	      1.11236587	     -0.47589232	      5.46957073	      0.34515910	      0.00000000	      0.00000000	      0.00000000	      0.00000000	      0.00000000	      0.00000000	      0.00000000	      0.00000000	      0.00000000
      0.03666667	   -112.22739209	    928.39116238	     -2.90275878	      2.40963721	      0.00000000	      1.11649090	     -0.80675236	      6.23195810	      0.22615030	      0.00000000	      0.00000000	      0.00000000	      0.00000000	      0.00000000	      0.00000000	      0.00000000	      0.00000000	      0.00000000
      0.04000000	   -112.15693961	    964.47897292	     -0.28537227	      2.39956567	      0.00000000	      1.10482929	     -1.04690302	      6.77141553	      0.13231598	      0.00000000	      0.00000000	      0.00000000	      0.00000000	      0.00000000	      0.00000000	      0.00000000	      0.00000000	      0.00000000
      0.04333333	   -112.34265043	    997.45635491	      1.33233192	      2.39614572	      0.00000000	      1.11496502	     -1.20764617	      7.11060049	      0.05912416	      0.00000000	      0.00000000	      0.00000000	      0.00000000	      0.00000000	      0.00000000	      0.00000000	      0.00000000	      0.00000000
      0.04666667	   -112.60321947	   1027.68355223	      1.94115128	      2.39794311	      0.00000000	      1.11194281	     -1.30072085	      7.27791380	      0.00249959	      0.00000000	      0.00000000	      0.00000000	      0.00000000	      0.00000000	      0.00000000	      0.00000000	      0.00000000	      0.00000000
      0.05000000	   -112.78833412	   1055.49035445	      1.59812266	      2.37212184	      0.00000000	      1.10799846	     -1.33826061	      7.30909924	     -0.04103644	      0.00000000	      0.00000000	      0.00000000	      0.00000000	      0.00000000	      0.00000000	      0.00000000	      0.00000000	      0.00000000
      0.05333333	   -112.77760478	   1081.14902826	      0.41439536	      2.39168275	      0.00000000	      1.11686819	     -1.33256277	      7.24639538	     -0.07430147	      0.00000000	      0.00000000	      0.00000000	      0.00000000	      0.00000000	      0.00000000	      0.00000000	      0.00000000	      0.00000000
      0.05666667	   -112.47424197	   1104.86268024	     -1.46164402	      2.35473998	      0.00000000	      1.10999766	     -1.29511573	      7.13160692	     -0.09960920	      0.00000000	      0.00000000	      0.00000000	      0.00000000	      0.00000000	      0.00000000	      0.00000000	      0.00000000	      0.00000000
      0.06000000	   -111.79886937	   1126.76586842	     -3.86067510	      2.37100482	      0.00000000	      1.11063584	     -1.23585381	      7.00105020	     -0.11895848	      0.00000000	      0.00000000	      0.00000000	      0.00000000	      0.00000000	      0.00000000	      0.00000000	      0.00000000	      0.00000000
      0.06333333	   -110.68758692	   1146.93872242	     -6.60655033	      2.35715667	      0.00000000	      1.11270810	     -1.16317398	      6.88580924	     -0.13401882	      0.00000000	      0.00000000	      0.00000000	      0.00000000	      0.00000000	      0.00000000	      0.00000000	      0.00000000	      0.00000000
      0.06666667	   -109.09402203	   1165.42902674	     -9.52684580	      2.34741553	      0.00000000	      1.11217791	     -1.08386725	      6.81043605	     -0.14611535	      0.00000000	      0.00000000	      0.00000000	      0.00000000	      0.00000000	      0.00000000	      0.00000000	      0.00000000	      0.00000000
      0.07000000	   -106.99081826	   1182.26894429	    -12.46230299	      2.34550438	      0.00000000	      1.11095327	     -1.00308148	      6.79175226	     -0.15628759	      0.00000000	      0.00000000	      0.00000000	      0.00000000	      0.00000000	      0.00000000	      0.00000000	      0.00000000	      0.00000000
      0.07333333	   -104.36768099	   1197.48010800	    -15.28084180	      2.32807603	      0.00000000	      1.11191470	     -0.92432213	      6.83745930	     -0.16524156	      0.00000000	      0.00000000	      0.00000000	      0.00000000	      0.00000000	      0.00000000	      0.00000000	      0.00000000	      0.00000000
      0.07666667	   -101.22647277	   1211.07205816	    -17.88781235	      2.33498014	      0.00000000	      1.11257351	     -0.84950666	      6.94555350	     -0.17331502	      0.00000000	      0.00000000	      0.00000000	      0.00000000	      0.00000000	      0.00000000	      0.00000000	      0.00000000	      0.00000000
      0.08000000	    -97.57308559	   1223.04299635	    -20.22401056	      2.31912353	      0.00000000	      1.11225206	     -0.77945592	      7.10879470	     -0.18064203	      0.00000000	      0.00000000	      0.00000000	      0.00000000	      0.00000000	      0.00000000	      0.00000000	      0.00000000	      0.00000000
      0.08333333	    -93.41218234	   1233.38734233	    -22.25953851	      2.31285443	      0.00000000	      1.11167999	     -0.71429081	      7.31808253	     -0.18731124	      0.00000000	      0.00000000	      0.00000000	      0.00000000	      0.00000000	      0.00000000	      0.00000000	      0.00000000	      0.00000000
      0.08666667	    -88.74844138	   1242.10629167	    -23.98924473	      2.30381511	      0.00000000	      1.10798058	     -0.65352195	      7.56227026	     -0.19339440	      0.00000000	      0.00000000	      0.00000000	      0.00000000	      0.00000000	      0.00000000	      0.00000000	      0.00000000	      0.00000000
